<svg width="100" height="28" viewBox="0 0 100 28" fill="none" xmlns="http://www.w3.org/2000/svg">
            <path d="M0 3.93872C0 2.66481 0.454967 1.68988 1.3649 1.01393C2.27484 0.337976 3.56175 0 5.22563 0V12.5181L18.2897 0C18.9396 0.467967 19.4596 1.00093 19.8496 1.59889C20.2656 2.17085 20.4735 2.67781 20.4735 3.11978C20.4735 3.50975 20.3305 3.89972 20.0446 4.28969C19.7846 4.65367 19.3816 5.09564 18.8357 5.6156L11.0362 12.9861L21.7604 26.3621C20.9545 27.454 19.9016 28 18.6017 28C17.3538 28 16.3528 27.532 15.5989 26.5961L7.44847 16.2618L5.22563 18.4457V24.2953C5.22563 25.5692 4.80966 26.5051 3.97772 27.1031C3.14578 27.701 1.81987 28 0 28V3.93872Z" fill="black" />
            <path d="M32.6703 28C30.9804 28 29.4465 27.701 28.0686 27.1031C26.7167 26.4791 25.6508 25.6212 24.8709 24.5292C24.0909 23.4373 23.7009 22.2024 23.7009 20.8245V15.3259C23.7009 13.922 24.0779 12.6481 24.8319 11.5042C25.6118 10.3603 26.6777 9.46332 28.0296 8.81337C29.3815 8.13742 30.9284 7.79944 32.6703 7.79944C34.4122 7.79944 35.9591 8.13742 37.311 8.81337C38.6889 9.46332 39.7548 10.3603 40.5087 11.5042C41.2887 12.6481 41.6787 13.922 41.6787 15.3259V20.8245C41.6787 22.2024 41.2757 23.4373 40.4697 24.5292C39.6898 25.6212 38.6109 26.4791 37.233 27.1031C35.8811 27.701 34.3602 28 32.6703 28ZM32.6703 23.8273C33.9702 23.8273 34.9841 23.5283 35.7121 22.9304C36.466 22.3324 36.843 21.5265 36.843 20.5125V15.5599C36.843 14.494 36.466 13.636 35.7121 12.9861C34.9841 12.3101 33.9702 11.9721 32.6703 11.9721C31.3964 11.9721 30.3825 12.3101 29.6285 12.9861C28.8746 13.636 28.4976 14.494 28.4976 15.5599V20.5125C28.4976 21.5265 28.8746 22.3324 29.6285 22.9304C30.3825 23.5283 31.3964 23.8273 32.6703 23.8273Z" fill="black" />
            <path d="M53.7511 28C51.6453 28 50.0854 27.389 49.0715 26.1671C48.0575 24.9452 47.5506 23.3723 47.5506 21.4485V11.7772H43.5339C43.5339 10.5552 43.7678 9.64531 44.2358 9.04735C44.7038 8.4494 45.3277 8.15042 46.1077 8.15042H47.6286V4.91365C47.6286 3.84773 48.0185 3.09378 48.7985 2.65181C49.5784 2.18384 50.7613 1.94986 52.3472 1.94986V8.15042H57.5339C57.5339 9.45033 57.2869 10.3863 56.7929 10.9582C56.2989 11.5042 55.506 11.7772 54.4141 11.7772H52.4252V21.2535C52.4252 22.1634 52.5942 22.8134 52.9322 23.2033C53.2962 23.5933 53.9071 23.7883 54.7651 23.7883C55.675 23.7883 56.5849 23.5413 57.4949 23.0474C57.7548 23.2813 57.9628 23.5803 58.1188 23.9443C58.2748 24.2823 58.3528 24.6332 58.3528 24.9972C58.3528 25.7772 57.9498 26.4791 57.1439 27.1031C56.3379 27.701 55.207 28 53.7511 28Z" fill="black" />
            <path d="M67.8847 28C66.5588 28 65.3368 27.74 64.2189 27.2201C63.127 26.7001 62.2431 25.9591 61.5671 24.9972C60.9172 24.0093 60.5922 22.8394 60.5922 21.4875C60.5922 20.1356 60.9431 18.9656 61.6451 17.9777C62.347 16.9638 63.296 16.1968 64.4919 15.6769C65.7138 15.1309 67.0527 14.8579 68.5086 14.8579C69.7045 14.8579 70.7704 15.0529 71.7064 15.4429C72.6683 15.8069 73.5523 16.3658 74.3582 17.1198L74.5532 16.9248C74.3192 16.6908 73.9162 16.3398 73.3443 15.8719V15.0919C73.3443 14.026 72.9673 13.1811 72.2133 12.5571C71.4594 11.9331 70.4065 11.6212 69.0546 11.6212C66.6367 11.6212 64.8559 12.5051 63.712 14.273C63.14 14.091 62.659 13.805 62.2691 13.415C61.8791 12.9991 61.6841 12.5571 61.6841 12.0891C61.6841 11.3092 62.0351 10.5942 62.737 9.94429C63.439 9.29434 64.3879 8.77437 65.5838 8.3844C66.7797 7.99443 68.0796 7.79944 69.4835 7.79944C72.2393 7.79944 74.3712 8.4494 75.8791 9.7493C77.387 11.0232 78.1409 12.7651 78.1409 14.9749V24.7242C78.1409 25.8682 77.777 26.7001 77.049 27.2201C76.3211 27.74 75.1771 28 73.6172 28V26.4011C74.0592 25.9591 74.3582 25.6342 74.5142 25.4262L74.3582 25.2312C73.5003 26.1411 72.5773 26.8301 71.5894 27.298C70.6275 27.766 69.3925 28 67.8847 28ZM69.1326 24.4513C70.4845 24.4513 71.5374 24.1913 72.2913 23.6713C73.0453 23.1513 73.4223 22.4104 73.4223 21.4485C73.4223 20.5125 73.0323 19.7716 72.2523 19.2256C71.4984 18.6797 70.4715 18.4067 69.1716 18.4067C67.9757 18.4067 67.0267 18.6797 66.3248 19.2256C65.6488 19.7456 65.3108 20.4865 65.3108 21.4485C65.3108 22.4364 65.6488 23.1903 66.3248 23.7103C67.0007 24.2043 67.9367 24.4513 69.1326 24.4513Z" fill="black" />
            <path d="M91.0049 28C89.393 28 87.9241 27.688 86.5982 27.0641C85.2723 26.4141 84.2194 25.5432 83.4395 24.4513C82.6595 23.3333 82.2695 22.0854 82.2695 20.7075V15.5209C82.2695 14.065 82.6725 12.7521 83.4785 11.5822C84.2844 10.4123 85.3503 9.48932 86.6762 8.81337C88.0281 8.13742 89.484 7.79944 91.0439 7.79944C92.5778 7.79944 93.9817 8.12442 95.2556 8.77437C96.5555 9.39833 97.5824 10.2823 98.3364 11.4262C99.0903 12.5441 99.4673 13.831 99.4673 15.2869V17.4708C99.4673 18.0427 99.2463 18.5237 98.8044 18.9137C98.3884 19.3036 97.8554 19.4986 97.2055 19.4986H86.9882V20.3565C86.9882 21.4745 87.3262 22.3844 88.0021 23.0864C88.6781 23.7883 89.692 24.1393 91.0439 24.1393C92.3438 24.1393 93.3057 23.8533 93.9297 23.2813C94.5797 22.7094 94.9046 21.9684 94.9046 21.0585C95.3726 21.0065 95.6976 20.9805 95.8796 20.9805C96.8415 20.9805 97.5954 21.2015 98.1414 21.6435C98.6874 22.0594 98.9603 22.6574 98.9603 23.4373C98.9603 24.1913 98.6094 24.9192 97.9074 25.6212C97.2055 26.3231 96.2435 26.8951 95.0216 27.337C93.7997 27.779 92.4608 28 91.0049 28ZM95.0606 16.0279V15.2869C95.0606 14.195 94.6836 13.3111 93.9297 12.6351C93.1758 11.9591 92.2008 11.6212 91.0049 11.6212C89.809 11.6212 88.8341 11.9591 88.0801 12.6351C87.3522 13.2851 86.9882 14.169 86.9882 15.2869V16.0279H95.0606Z" fill="black" />
          </svg>